<?xml version="1.0" encoding="UTF-8"?>
<!DOCTYPE svg PUBLIC "-//W3C//DTD SVG 1.1//EN" "http://www.w3.org/Graphics/SVG/1.1/DTD/svg11.dtd">
<!-- Creator: CorelDRAW X8 -->
<svg xmlns="http://www.w3.org/2000/svg" xml:space="preserve" width="312mm" height="67mm" version="1.1" style="shape-rendering:geometricPrecision; text-rendering:geometricPrecision; image-rendering:optimizeQuality; fill-rule:evenodd; clip-rule:evenodd"
viewBox="0 0 31200 6700"
 xmlns:xlink="http://www.w3.org/1999/xlink">
 <defs>
  <style type="text/css">
   <![CDATA[
    .fil1 {fill:#394E7D;fill-rule:nonzero}
    .fil0 {fill:#fff;fill-rule:nonzero}
   ]]>
  </style>
 </defs>
 <g id="Warstwa_x0020_1">
  <metadata id="CorelCorpID_0Corel-Layer"/>
  <path class="fil0" d="M26411 6619l0 -6530 2763 0c294,0 564,62 810,187 122,62 236,133 341,214 106,81 203,171 291,271 89,100 168,206 237,319 69,112 129,231 180,358 51,127 89,254 114,382 26,129 38,259 38,389 0,138 -12,274 -35,407 -24,134 -59,264 -107,392 -47,127 -104,248 -171,362 -67,114 -143,220 -228,317 -85,98 -179,187 -282,267 -103,79 -213,149 -332,209 -121,61 -248,107 -382,138 -134,30 -274,45 -419,45l-1984 0 0 2373 -834 0 0 -100zm834 -3034l1956 0c87,0 169,-9 246,-28 76,-18 150,-46 220,-83 70,-37 136,-81 196,-131 62,-51 117,-107 166,-169 50,-62 95,-130 135,-204 40,-74 74,-153 102,-236 57,-168 85,-343 85,-525 0,-95 -8,-186 -24,-273 -16,-89 -40,-174 -73,-258 -65,-167 -152,-312 -262,-436 -55,-61 -114,-116 -178,-164 -63,-48 -133,-89 -207,-124 -73,-35 -148,-61 -225,-78 -76,-17 -154,-26 -235,-26l-1902 0 0 2735z"/>
  <path class="fil0" d="M20928 6619l0 -6530 2763 0c293,0 563,62 810,187 122,62 235,133 341,214 105,81 203,171 291,271 89,100 168,206 237,319 69,112 129,231 179,358 51,127 89,254 115,382 25,129 38,259 38,389 0,138 -12,274 -36,407 -23,134 -59,264 -106,392 -47,127 -104,248 -171,362 -67,114 -143,220 -228,317 -85,98 -180,187 -283,267 -102,79 -213,149 -332,209 -120,61 -247,107 -382,138 -134,30 -273,45 -419,45l-1983 0 0 2373 -834 0 0 -100zm834 -3034l1956 0c87,0 169,-9 245,-28 77,-18 150,-46 220,-83 71,-37 136,-81 197,-131 61,-51 117,-107 166,-169 50,-62 95,-130 135,-204 39,-74 73,-153 102,-236 56,-168 85,-343 85,-525 0,-95 -8,-186 -24,-273 -17,-89 -41,-174 -73,-258 -65,-167 -153,-312 -263,-436 -54,-61 -113,-116 -177,-164 -64,-48 -133,-89 -207,-124 -74,-35 -149,-61 -225,-78 -76,-17 -154,-26 -235,-26l-1902 0 0 2735z"/>
  <path class="fil1" d="M16502 54l735 0 41 86c809,1736 1619,3472 2428,5208l604 1296 -1237 0 -1312 -2870 9 0 -990 -2164 -58 126 -2 -3 -2277 4911 -1200 0 1244 -2650c603,-1285 1206,-2569 1809,-3854l41 -86 165 0z"/>
  <path class="fil0" d="M7901 134l665 0 839 2113 847 -2113 822 0 -1163 2844 1122 2649 2263 -5538 905 0 -2811 6630 -693 0 -1284 -3024 -1292 3024 -685 0c-934,-2210 -1867,-4420 -2801,-6630l896 0 2271 5537 1114 -2648 -1164 -2844 149 0z"/>
  <path class="fil0" d="M4024 1459c-85,-96 -185,-184 -299,-262 -114,-79 -244,-148 -390,-210 -289,-121 -620,-182 -993,-182 -277,0 -514,26 -711,77 -193,50 -349,124 -467,222 -118,97 -206,211 -264,343 -59,132 -89,283 -89,454 0,176 31,318 92,426 30,54 68,104 116,152 48,48 105,93 171,134 69,43 146,83 234,120 88,37 188,72 298,104 223,66 488,132 794,198 174,36 339,75 495,116 159,42 307,86 444,131 141,46 272,99 394,158 122,59 233,124 334,195 103,72 194,152 273,240 79,89 147,185 202,288 55,105 97,222 125,353 27,128 41,267 41,419 0,312 -62,584 -184,816 -61,115 -134,222 -220,318 -85,97 -183,184 -291,261 -108,76 -226,142 -355,198 -127,56 -265,102 -413,138 -146,36 -299,63 -458,81 -160,18 -326,27 -498,27 -633,0 -1212,-123 -1738,-368l-549 -1335 6 -9 89 94c54,57 115,113 181,169 67,56 139,110 215,161 77,53 158,102 244,148 85,45 176,88 272,128 95,39 193,74 296,105 104,32 209,58 315,80 108,21 219,38 334,49 112,11 230,16 353,16 494,0 876,-87 1146,-260 129,-83 225,-186 288,-309 64,-125 96,-273 96,-445 0,-92 -9,-176 -27,-252 -18,-73 -45,-140 -81,-199 -36,-61 -81,-117 -136,-170 -56,-54 -121,-104 -197,-150 -77,-47 -164,-91 -261,-132 -97,-42 -204,-80 -322,-115 -125,-38 -254,-73 -388,-108 -137,-35 -286,-71 -448,-108l0 0c-169,-39 -329,-80 -480,-121l0 0c-149,-41 -288,-83 -417,-126 -132,-44 -253,-94 -364,-148 -112,-55 -214,-116 -306,-183 -94,-68 -176,-143 -247,-225 -71,-83 -130,-172 -178,-269 -48,-98 -84,-205 -107,-322 -23,-116 -35,-243 -35,-379 0,-154 15,-301 44,-440 30,-140 74,-272 134,-395 59,-124 131,-237 215,-340 85,-103 181,-195 290,-277 109,-81 226,-152 352,-214 125,-61 260,-112 405,-155 143,-42 295,-74 454,-95 160,-21 326,-31 498,-31 219,0 427,16 624,50 197,33 383,84 557,151l10 4 511 1244 -29 -34z"/>
 </g>
</svg>
