<?xml version="1.0" encoding="UTF-8"?>
<!DOCTYPE svg PUBLIC "-//W3C//DTD SVG 1.1//EN" "http://www.w3.org/Graphics/SVG/1.1/DTD/svg11.dtd">
<!-- Creator: CorelDRAW X8 -->
<svg xmlns="http://www.w3.org/2000/svg" xml:space="preserve" width="210mm" height="297mm" version="1.1" style="shape-rendering:geometricPrecision; text-rendering:geometricPrecision; image-rendering:optimizeQuality; fill-rule:evenodd; clip-rule:evenodd"
viewBox="0 0 21000 29700"
 xmlns:xlink="http://www.w3.org/1999/xlink">
 <defs>
  <style type="text/css">
   <![CDATA[
    .fil0 {fill:#2D3332}
    .fil1 {fill:#42BA85}
    .fil2 {fill:#FDFDFF}
    .fil3 {fill:#42BB85;fill-rule:nonzero}
   ]]>
  </style>
 </defs>
 <g id="Warstwa_x0020_1">
  <metadata id="CorelCorpID_0Corel-Layer"/>
  <g id="_2705709240304">
   <path class="fil0" d="M4252 8175c-34,630 661,2275 -250,3157 -732,708 -1068,1255 -1594,2358 -1465,-2 -1356,610 -1356,1953 0,1311 -63,1979 1366,1950 373,1088 1154,1890 1761,2515 -73,592 -647,1839 -549,2330 330,323 869,390 1401,541 934,264 1469,675 1774,8 57,-126 89,-251 123,-365 79,-268 165,-569 213,-827 3224,792 3228,523 6141,79 446,1856 353,1614 2098,1103 1958,-573 1489,-270 955,-2400 -194,-773 706,-476 1761,-2756 221,-477 435,-1768 520,-1918 802,-433 933,564 1564,124 -69,-305 -313,-300 -649,-361l142 -147c180,-174 369,-320 483,-589 528,-1242 -1515,-1607 -1217,544 -643,12 -249,131 -489,-909 -1018,-4394 -6276,-6253 -10111,-5385 -1710,386 -758,398 -1951,-385 -308,-203 -1674,-802 -2136,-620zm15014 7076c340,-62 787,-486 538,-907 -436,-137 -608,437 -538,907z"/>
   <path class="fil1" d="M15615 22535l-834 -2346c1828,-1757 3048,-3992 1895,-6603 -515,-1166 -1222,-1941 -2046,-2576 -1638,-1260 -2127,-1023 -3013,-1534 -568,-385 -3378,61 -4086,284 -912,287 -569,-807 -2852,-1226 397,2154 102,2484 -906,3629 -573,650 -744,1015 -1109,1861 -1421,115 -1257,89 -1256,1619 0,406 -79,986 94,1302 218,396 650,248 1130,336 203,254 422,833 653,1194 1134,1769 1490,1020 1115,2265 -148,489 -376,1089 -437,1589l2486 687 456 -1622c680,25 1617,511 3262,527 1626,16 2800,-469 3322,-416l482 1461c580,-28 1087,-273 1644,-431z"/>
   <path class="fil2" d="M15615 22535l822 -235c-80,-479 -639,-1843 -543,-2147 49,-156 487,-503 679,-688 1793,-1729 2252,-4739 522,-7029 -1168,-1546 -3371,-2839 -5478,-2960 886,511 1375,274 3013,1534 824,635 1531,1410 2046,2576 1153,2611 -67,4846 -1895,6603l834 2346z"/>
   <path class="fil0" d="M10010 3922c-2265,426 -1744,4113 751,3631 923,-177 1668,-1075 1447,-2216 -180,-926 -1105,-1621 -2198,-1415z"/>
   <path class="fil1" d="M9888 4346c-1899,763 -760,3474 1025,2792 1862,-711 790,-3521 -1025,-2792z"/>
   <path class="fil2" d="M10081 4735c-1320,389 -739,2472 683,1999 1156,-385 747,-2420 -683,-1999z"/>
   <circle class="fil0" cx="4779" cy="13519" r="324"/>
   <path class="fil0" d="M9939 20611c91,3 183,3 274,2 88,-1 180,-4 276,-9 419,-23 847,-84 1282,-184 437,-101 881,-241 1332,-423l114 284c-467,188 -926,333 -1377,437 -453,104 -898,168 -1336,191 -93,5 -189,8 -288,9 -95,2 -191,1 -285,-1l8 -306zm-2784 -673c298,139 599,258 904,355 303,96 612,171 927,225l-51 302c-325,-56 -648,-135 -968,-236 -318,-102 -632,-225 -941,-370l129 -276z"/>
   <path class="fil0" d="M10292 10200l28 0c365,6 1218,39 1549,182 34,15 36,47 37,138l-36 162c-37,148 -88,81 -264,51 -440,-74 -868,-124 -1287,-126l-27 0 -27 0c-420,2 -848,52 -1288,126 -175,30 -227,97 -263,-51l-36 -162c0,-91 3,-123 36,-138 331,-143 1184,-176 1549,-182l29 0z"/>
   <path class="fil3" d="M10348 5125l116 0 0 75c13,3 43,15 90,37 7,-6 12,-13 16,-21 8,-14 17,-21 28,-21l34 0 12 -1c7,1 11,8 13,20 0,0 2,7 5,20l31 167c0,3 1,7 3,14 7,34 11,56 11,64 0,11 -13,16 -39,16 -25,0 -40,-1 -45,-3 -4,-1 -12,-13 -22,-34 -43,-84 -88,-137 -137,-161l0 270c115,72 190,136 227,193 36,57 54,123 54,197 0,66 -13,119 -40,160 -26,41 -57,71 -93,91 -36,20 -85,32 -147,37l0 112 -117 0 0 -124c-37,-15 -62,-27 -74,-35 -11,-7 -19,-11 -25,-11 -10,0 -19,10 -27,29 -5,12 -10,20 -16,22 -5,3 -22,4 -51,4 -8,0 -14,-11 -18,-33l-42 -242c-2,-13 -3,-21 -3,-23 0,-16 15,-24 46,-24 24,0 39,3 46,9 6,6 19,26 38,59 46,83 88,133 126,151l0 -318c-185,-103 -277,-227 -277,-371 0,-49 7,-90 23,-123 14,-33 42,-64 81,-92 39,-28 97,-42 173,-44l0 -66zm-1 377l0 -237c-31,0 -56,10 -74,29 -19,19 -28,40 -28,62 0,50 34,99 102,146zm118 394l0 266c69,-10 104,-47 104,-111 0,-56 -35,-108 -104,-155z"/>
  </g>
 </g>
</svg>
