<?xml version="1.0" encoding="UTF-8" standalone="no"?>
<!-- Generator: Adobe Illustrator 21.0.2, SVG Export Plug-In . SVG Version: 6.00 Build 0)  -->

<svg
   xmlns:dc="http://purl.org/dc/elements/1.1/"
   xmlns:cc="http://creativecommons.org/ns#"
   xmlns:rdf="http://www.w3.org/1999/02/22-rdf-syntax-ns#"
   xmlns:svg="http://www.w3.org/2000/svg"
   xmlns="http://www.w3.org/2000/svg"
   xmlns:sodipodi="http://sodipodi.sourceforge.net/DTD/sodipodi-0.dtd"
   xmlns:inkscape="http://www.inkscape.org/namespaces/inkscape"
   version="1.1"
   id="Layer_1"
   x="0px"
   y="0px"
   viewBox="0 0 595.3 841.9"
   style="enable-background:new 0 0 595.3 841.9;"
   xml:space="preserve"
   inkscape:version="0.91 r13725"
   sodipodi:docname="skarbonka.svg"><metadata
     id="metadata3414"><rdf:RDF><cc:Work
         rdf:about=""><dc:format>image/svg+xml</dc:format><dc:type
           rdf:resource="http://purl.org/dc/dcmitype/StillImage" /><dc:title></dc:title></cc:Work></rdf:RDF></metadata><defs
     id="defs3412"><inkscape:perspective
       sodipodi:type="inkscape:persp3d"
       inkscape:vp_x="0 : 420.95 : 1"
       inkscape:vp_y="0 : 1000 : 0"
       inkscape:vp_z="595.3 : 420.95 : 1"
       inkscape:persp3d-origin="297.65 : 280.63333 : 1"
       id="perspective3420" /></defs><sodipodi:namedview
     pagecolor="#ffffff"
     bordercolor="#666666"
     borderopacity="1"
     objecttolerance="10"
     gridtolerance="10"
     guidetolerance="10"
     inkscape:pageopacity="0"
     inkscape:pageshadow="2"
     inkscape:window-width="1855"
     inkscape:window-height="1056"
     id="namedview3410"
     showgrid="false"
     inkscape:zoom="1.0915785"
     inkscape:cx="161.15043"
     inkscape:cy="420.95001"
     inkscape:window-x="65"
     inkscape:window-y="24"
     inkscape:window-maximized="1"
     inkscape:current-layer="Layer_1" /><style
     type="text/css"
     id="style3396">
	.st0{fill:#1E1E1C;}
	.st1{fill:#42BA85;}
	.st2{fill:#FFFFFF;}
	.st3{fill:#FDFDFF;}
	.st4{fill:#42BB85;}
	#g4272 {
		 	animation: coinmove 2s linear infinite;
	}

	@keyframes coinmove {
        0% {
            transform: translateY(-1100px);
            }
        100% {
            transform: translateY(80px);
            }
        }



</style><g
     id="Warstwa_x0020_1"><g
       id="_2705709240304"><path
         id="XMLID_10_"
         class="st0"
         d="M120.5,231.7c-1,17.9,18.7,64.5-7.1,89.5c-20.7,20.1-30.3,35.6-45.2,66.8    c-41.5-0.1-38.4,17.3-38.4,55.4c0,37.2-1.8,56.1,38.7,55.3c10.6,30.8,32.7,53.6,49.9,71.3c-2.1,16.8-18.3,52.1-15.6,66    c9.4,9.2,24.6,11.1,39.7,15.3c26.5,7.5,41.6,19.1,50.3,0.2c1.6-3.6,2.5-7.1,3.5-10.3c2.2-7.6,4.7-16.1,6-23.4    c91.4,22.5,91.5,14.8,174.1,2.2c12.6,52.6,10,45.8,59.5,31.3c55.5-16.2,42.2-7.7,27.1-68c-5.5-21.9,20-13.5,49.9-78.1    c6.3-13.5,12.3-50.1,14.7-54.4c22.7-12.3,26.4,16,44.3,3.5c-2-8.6-8.9-8.5-18.4-10.2l4-4.2c5.1-4.9,10.5-9.1,13.7-16.7    c15-35.2-42.9-45.6-34.5,15.4c-18.2,0.3-7.1,3.7-13.9-25.8c-28.9-124.6-177.9-177.3-286.6-152.6c-48.5,10.9-21.5,11.3-55.3-10.9    C172.3,243.6,133.6,226.6,120.5,231.7z M546.1,432.3c9.6-1.8,22.3-13.8,15.3-25.7C549,402.7,544.1,419,546.1,432.3z" /><path
         id="XMLID_9_"
         class="st1"
         d="M442.6,638.8L419,572.3c51.8-49.8,86.4-113.2,53.7-187.2c-14.6-33.1-34.6-55-58-73    c-46.4-35.7-60.3-29-85.4-43.5c-16.1-10.9-95.8,1.7-115.8,8.1c-25.9,8.1-16.1-22.9-80.8-34.8c11.3,61.1,2.9,70.4-25.7,102.9    c-16.2,18.4-21.1,28.8-31.4,52.8c-40.3,3.3-35.6,2.5-35.6,45.9c0,11.5-2.2,27.9,2.7,36.9c6.2,11.2,18.4,7,32,9.5    c5.8,7.2,12,23.6,18.5,33.8c32.1,50.1,42.2,28.9,31.6,64.2c-4.2,13.9-10.7,30.9-12.4,45l70.5,19.5l12.9-46    c19.3,0.7,45.8,14.5,92.5,14.9c46.1,0.5,79.4-13.3,94.2-11.8L396,651C412.5,650.2,426.8,643.3,442.6,638.8z" /><path
         id="XMLID_8_"
         class="st2"
         d="M442.6,638.8l23.3-6.7c-2.3-13.6-18.1-52.2-15.4-60.9c1.4-4.4,13.8-14.3,19.2-19.5    c50.8-49,63.8-134.3,14.8-199.2c-33.1-43.8-95.6-80.5-155.3-83.9c25.1,14.5,39,7.8,85.4,43.5c23.4,18,43.4,40,58,73    c32.7,74-1.9,137.4-53.7,187.2L442.6,638.8z" /><circle
         id="XMLID_4_"
         class="st0"
         cx="135.5"
         cy="383.2"
         r="9.2" /><path
         id="XMLID_3_"
         class="st0"
         d="M281.7,584.2c2.6,0.1,5.2,0.1,7.8,0.1c2.5,0,5.1-0.1,7.8-0.3c11.9-0.7,24-2.4,36.3-5.2    c12.4-2.9,25-6.8,37.8-12l3.2,8.1c-13.2,5.3-26.2,9.4-39,12.4c-12.8,2.9-25.5,4.8-37.9,5.4c-2.6,0.1-5.4,0.2-8.2,0.3    c-2.7,0.1-5.4,0-8.1,0L281.7,584.2z M202.8,565.2c8.4,3.9,17,7.3,25.6,10.1c8.6,2.7,17.3,4.8,26.3,6.4l-1.4,8.6    c-9.2-1.6-18.4-3.8-27.4-6.7c-9-2.9-17.9-6.4-26.7-10.5L202.8,565.2z" /><g
         id="g4272"
         transform="translate(-3.6644188,-122.758)"><path
           style="fill:#1e1e1c"
           inkscape:connector-curvature="0"
           d="m 281.86779,218.38423 c -64.2,12.1 -49.4,116.6 21.3,102.9 26.2,-5 47.3,-30.5 41,-62.8 -5,-26.3 -31.3,-46 -62.3,-40.1 z"
           class="st0"
           id="XMLID_7_" /><path
           style="fill:#42ba85"
           inkscape:connector-curvature="0"
           d="m 278.46779,230.38423 c -53.8,21.6 -21.5,98.5 29.1,79.1 52.7,-20.1 22.3,-99.8 -29.1,-79.1 z"
           class="st1"
           id="XMLID_6_" /><path
           style="fill:#fdfdff"
           inkscape:connector-curvature="0"
           d="m 283.96779,241.38423 c -37.4,11 -20.9,70.1 19.4,56.7 32.7,-10.9 21.1,-68.6 -19.4,-56.7 z"
           class="st3"
           id="XMLID_5_" /><path
           style="fill:#42bb85"
           inkscape:connector-curvature="0"
           d="m 291.46779,252.48423 3.3,0 0,2.1 c 0.4,0.1 1.2,0.4 2.6,1 0.2,-0.2 0.3,-0.4 0.5,-0.6 0.2,-0.4 0.5,-0.6 0.8,-0.6 l 1,0 0.3,0 c 0.2,0 0.3,0.2 0.4,0.6 0,0 0.1,0.2 0.1,0.6 l 0.9,4.7 c 0,0.1 0,0.2 0.1,0.4 0.2,1 0.3,1.6 0.3,1.8 0,0.3 -0.4,0.5 -1.1,0.5 -0.7,0 -1.1,0 -1.3,-0.1 -0.1,0 -0.3,-0.4 -0.6,-1 -1.2,-2.4 -2.5,-3.9 -3.9,-4.6 l 0,7.7 c 3.3,2 5.4,3.9 6.4,5.5 1,1.6 1.5,3.5 1.5,5.6 0,1.9 -0.4,3.4 -1.1,4.5 -0.7,1.2 -1.6,2 -2.6,2.6 -1,0.6 -2.4,0.9 -4.2,1 l 0,3.2 -3.3,0 0,-3.5 c -1,-0.4 -1.8,-0.8 -2.1,-1 -0.3,-0.2 -0.5,-0.3 -0.7,-0.3 -0.3,0 -0.5,0.3 -0.8,0.8 -0.1,0.3 -0.3,0.6 -0.5,0.6 -0.1,0.1 -0.6,0.1 -1.4,0.1 -0.2,0 -0.4,-0.3 -0.5,-0.9 l -1.2,-6.9 c -0.1,-0.4 -0.1,-0.6 -0.1,-0.7 0,-0.5 0.4,-0.7 1.3,-0.7 0.7,0 1.1,0.1 1.3,0.3 0.2,0.2 0.5,0.7 1.1,1.7 1.3,2.4 2.5,3.8 3.6,4.3 l 0,-9 c -5.2,-2.9 -7.9,-6.4 -7.9,-10.5 0,-1.4 0.2,-2.6 0.7,-3.5 0.4,-0.9 1.2,-1.8 2.3,-2.6 1.1,-0.8 2.7,-1.2 4.9,-1.2 l 0,-1.9 z m 0,10.7 0,-6.7 c -0.9,0 -1.6,0.3 -2.1,0.8 -0.5,0.5 -0.8,1.1 -0.8,1.8 0,1.3 1,2.7 2.9,4.1 z m 3.3,11.1 0,7.5 c 2,-0.3 2.9,-1.3 2.9,-3.1 0.1,-1.6 -0.9,-3 -2.9,-4.4 z"
           class="st4"
           id="XMLID_1_" /></g><path
         style="fill:#42ba85;fill-opacity:1;fill-rule:evenodd;stroke:none;stroke-width:1px;stroke-linecap:butt;stroke-linejoin:miter;stroke-opacity:1"
         d="m 212.53624,293.15344 150.24114,7.86439 2.74831,162.53105 -154.82166,0 z"
         id="path3470"
         inkscape:connector-curvature="0" /><path
         id="XMLID_2_"
         class="st0"
         d="m 290.78389,289.1 1.15281,0 c 14.84244,0.2 49.71495,1.1 63.26048,5.2 1.44101,0.4 1.44101,1.3 1.44101,3.9 l -1.44101,4.6 c -1.44102,4.2 -3.60254,2.3 -10.8076,1.4 -18.01267,-2.1 -35.44892,-3.5 -52.59698,-3.6 l -1.15281,0 -0.86461,0 c -17.14805,0.1 -34.58431,1.5 -52.59698,3.6 -7.20506,0.9 -9.22248,2.7 -10.80759,-1.4 l -1.44102,-4.6 c 0,-2.6 0.1441,-3.5 1.44102,-3.9 13.54552,-4.1 48.41804,-5 63.26047,-5.2 l 1.15281,0 z"
         inkscape:connector-curvature="0"
         style="fill:#1e1e1c" /></g></g><g
     inkscape:groupmode="layer"
     id="layer2"
     inkscape:label="Layer 1"
     style="display:inline" /></svg>