<?xml version="1.0" encoding="utf-8"?>
<!-- Generator: Adobe Illustrator 21.0.2, SVG Export Plug-In . SVG Version: 6.00 Build 0)  -->
<svg version="1.1" id="Layer_1" xmlns="http://www.w3.org/2000/svg" xmlns:xlink="http://www.w3.org/1999/xlink" x="0px" y="0px"
	 viewBox="0 0 595.3 841.9" style="enable-background:new 0 0 595.3 841.9;" xml:space="preserve">
<style type="text/css">
	.st0{fill:#42BB85;}
	.st1{fill:#2F2F2F;}
	.st2{fill:#FFFFFF;}
	.st3{fill:#FEFEFE;}
</style>
<g id="Warstwa_x0020_1">
	<rect id="XMLID_33_" x="271.4" y="530.6" class="st0" width="82.1" height="66.5"/>
	<rect id="XMLID_5_" x="378.4" y="479.4" class="st0" width="83.8" height="117.8"/>
	<rect id="XMLID_3_" x="486.8" y="278.6" class="st0" width="82.1" height="319"/>
	<path id="XMLID_1_" class="st1" d="M460.5,467.8l-0.5-256.1c0-63.9-6.7-57.3-75.9-57.3c-35.5,0-319.3-1.7-332.5,0.7
		c-21.2,3.9-22.3,22.5-22.3,44.4c0.2,86.9,3.5,181.6-0.3,267.6c-7.5,3.6-7.3-1.1-13.6,4.1l-0.1,7.8l174.1,0.7
		c-3.5,20.4-46.6,110.4-42.8,120.8c8.6,0.7,4.1,2.2,8.1-3.6c0-0.1,3.8-9.8,4-10.3l24.4-61l56.5-0.3c-0.1,9.3-2.2,21.8,2.3,28.9
		c10.5-0.9,6.3-1.7,7.1-28.8l51.7-0.1c0.7,0.1,1.2,0.2,1.8,0.4l3.2,1.3c0.4,0.1,1,0.5,1.5,0.8l1.3,2.7c0.5,1.2,1.4,3.5,1.8,4.3
		l23.4,62.7c4.5,5.6-0.9,1.1,5.7,4.1c3.8-1.7,2.4-0.5,4.5-3.8L318,530.3l-19-50.2l79.3-0.7l83.5,0.3c1.3,0,4.7,0.1,5.7-0.1l5-1.5
		c0.4-0.1,1-0.5,1.5-0.8C473.7,463.2,475,470.8,460.5,467.8z M186.5,516.1c3.4-9.8,9.3-29,15.1-36.4l38.1,0.3l0.1,36.2L186.5,516.1z
		 M302.5,516.2l-53.5-0.9l0.2-35.5l39.7-0.1L302.5,516.2z M450.5,468.8L39,468.7c-3-22.7-0.7-216.1-0.7-256.9
		c0-23.2-5.2-44.6,17.5-48.1l318.2-0.4c81.2,0,76.8-7,76.8,50.6c0,42.5,0,85.1,0,127.7C450.8,383,452.5,427.4,450.5,468.8z"/>
	<rect id="XMLID_2_" x="68.5" y="192.2" class="st0" width="352.3" height="248.6"/>
	<g id="XMLID_14_">
		<polygon id="XMLID_25_" class="st1" points="199.9,321.4 113.8,407.6 119.8,413.6 203.1,330.3 222.3,347.3 278.8,290.7 
			298.4,310.3 345.4,263.2 360.9,278.6 379.2,223.4 324,241.8 339.4,257.2 298.4,298.3 278.8,278.7 221.9,335.6 202.8,318.6 		"/>
	</g>
	<g>
		<g id="XMLID_9_">
			<path id="XMLID_24_" class="st1" d="M220.6,327.7c6.2,0,11.3,5,11.3,11.2c0,6.2-5,11.3-11.3,11.3c-6.2,0-11.2-5-11.2-11.3
				C209.3,332.7,214.4,327.7,220.6,327.7z M113.3,403.8c6.2,0,11.3,5,11.3,11.2s-5,11.3-11.3,11.3c-6.2,0-11.2-5-11.2-11.3
				S107.1,403.8,113.3,403.8z"/>
		</g>
		<g>
			<path id="XMLID_4_" class="st1" d="M278.7,270c-9.1,0-16.4,7.4-16.4,16.4c0,9.1,7.4,16.4,16.4,16.4c9.1,0,16.4-7.4,16.4-16.4
				C295.1,277.4,287.8,270,278.7,270z M278.4,292.5c-3.4,0-6.2-2.8-6.2-6.2c0-3.4,2.8-6.2,6.2-6.2c3.4,0,6.2,2.8,6.2,6.2
				C284.7,289.7,281.9,292.5,278.4,292.5z"/>
			<circle id="XMLID_20_" class="st2" cx="278.4" cy="286.2" r="6.2"/>
		</g>
	</g>
	<g id="XMLID_12_">
		<circle id="XMLID_19_" class="st3" cx="220.6" cy="338.9" r="6.2"/>
	</g>
	<g id="XMLID_8_">
		<circle id="XMLID_18_" class="st3" cx="113.3" cy="415" r="6.2"/>
	</g>
</g>
</svg>
