<?xml version="1.0" encoding="UTF-8"?>
<!DOCTYPE svg PUBLIC "-//W3C//DTD SVG 1.1//EN" "http://www.w3.org/Graphics/SVG/1.1/DTD/svg11.dtd">
<!-- Creator: CorelDRAW X8 -->
<svg xmlns="http://www.w3.org/2000/svg" xml:space="preserve" width="210mm" height="297mm" version="1.1" style="shape-rendering:geometricPrecision; text-rendering:geometricPrecision; image-rendering:optimizeQuality; fill-rule:evenodd; clip-rule:evenodd"
viewBox="0 0 21000 29700"
 xmlns:xlink="http://www.w3.org/1999/xlink">
 <defs>
  <style type="text/css">
   <![CDATA[
    .str0 {stroke:#2B2A29;stroke-width:20}
    .fil3 {fill:#FEFEFE}
    .fil0 {fill:#2F2F2F}
    .fil2 {fill:#42BB85}
    .fil1 {fill:#FEFEFE}
   ]]>
  </style>
 </defs>
 <g id="Warstwa_x0020_1">
  <metadata id="CorelCorpID_0Corel-Layer"/>
  <path class="fil0" d="M10842 18621l47 96c18,42 51,123 62,151l826 2212c157,196 -33,38 201,144 134,-60 84,-19 158,-134l-919 -2383 -672 -1771 2799 -25 2944 12c45,0 165,3 201,-4l175 -54c14,-5 37,-16 54,-27 -7,-499 40,-228 -471,-334l-16 -9033c0,-2256 -237,-2023 -2678,-2023 -1251,0 -11263,-59 -11729,26 -749,136 -788,795 -787,1568 6,3066 122,6405 -9,9439 -264,128 -258,-40 -479,143l-2 275 6143 24c-123,718 -1645,3895 -1511,4263 302,24 143,77 286,-128 1,-2 134,-344 141,-363l861 -2151 1994 -9c-3,328 -77,769 82,1018 371,-30 222,-61 250,-1017l1823 -2c23,4 41,8 62,14l112 45c13,5 36,16 52,28z"/>
  <path class="fil1" d="M1377 16534l14517 3c68,-1460 8,-3026 9,-4490 0,-1501 0,-3003 0,-4504 0,-2033 155,-1785 -2708,-1785l-11227 15c-798,123 -616,879 -616,1698 0,1440 -82,8261 25,9063z"/>
  <polygon class="fil2" points="2393,15540 14844,15553 14848,6783 2416,6782 "/>
  <path class="fil2" d="M17174 21083l2897 0 14 -11256 -2911 3c61,3566 64,7507 0,11253z"/>
  <path class="fil2" d="M16288 16923l-2944 -12 26 4163 2857 11c190,-672 -23,-3208 61,-4162z"/>
  <path class="fil2" d="M11777 21080l-826 -2212c-11,-28 -44,-109 -62,-151l-47 -96c-155,123 -215,106 -580,100 -230,-4 -455,-8 -686,-1l-21 2346 2222 14z"/>
  <path class="fil1" d="M6580 18207l1877 2 -2 -1278 -1343 -9c-205,263 -413,938 -532,1285z"/>
  <polygon class="fil1" points="8786,18179 10673,18211 10193,16925 8793,16927 "/>
  <polygon class="fil2" points="12136,21090 12472,21067 12468,18725 11217,18707 "/>
  <polygon class="fil0" points="7053,11339 4013,14379 4225,14591 7165,11651 7842,12251 9837,10256 10527,10946 12186,9286 12730,9830 13379,7882 11431,8531 11974,9074 10527,10522 9837,9832 7829,11839 7153,11239 "/>
  <path class="fil0" d="M7781 11559c219,0 397,177 397,396 0,219 -178,397 -397,397 -218,0 -396,-178 -396,-397 0,-219 178,-396 396,-396zm-3783 2686c219,0 397,177 397,396 0,219 -178,397 -397,397 -219,0 -396,-178 -396,-397 0,-219 177,-396 396,-396z"/>
  <circle class="fil0" cx="9823" cy="10098" r="396"/>
  <circle class="fil3 str0" cx="9823" cy="10098" r="219"/>
  <circle class="fil3" cx="9823" cy="10098" r="219"/>
  <circle class="fil3" cx="7781" cy="11955" r="219"/>
  <circle class="fil3" cx="3998" cy="14641" r="219"/>
 </g>
</svg>
