<?xml version="1.0" encoding="UTF-8"?>
<!DOCTYPE svg PUBLIC "-//W3C//DTD SVG 1.1//EN" "http://www.w3.org/Graphics/SVG/1.1/DTD/svg11.dtd">
<!-- Creator: CorelDRAW X8 -->
<svg xmlns="http://www.w3.org/2000/svg" xml:space="preserve" width="210mm" height="297mm" version="1.1" style="shape-rendering:geometricPrecision; text-rendering:geometricPrecision; image-rendering:optimizeQuality; fill-rule:evenodd; clip-rule:evenodd"
viewBox="0 0 21000 29700"
 xmlns:xlink="http://www.w3.org/1999/xlink">
 <defs>
  <style type="text/css">
   <![CDATA[
    .fil4 {fill:#FEFEFE}
    .fil0 {fill:#36423B}
    .fil2 {fill:#42BB85}
    .fil1 {fill:#FDFDFD}
    .fil3 {fill:#42BB85;fill-rule:nonzero}
   ]]>
  </style>
 </defs>
 <g id="Warstwa_x0020_1">
  <metadata id="CorelCorpID_0Corel-Layer"/>
  <g id="_2705663740272">
   <path class="fil0" d="M13218 10189c116,453 90,3299 20,3961 15,-291 -1215,-1929 -3069,-2507 -251,-79 -1141,-267 -1418,-200 -1026,250 1536,3832 3398,3839l-2554 39 41 -602c-5,-22 -15,-57 -29,-83 -1221,-207 -2744,693 -3547,1902l-26 -2798c667,-227 1014,-220 1491,-722 1344,-1412 365,-3885 -1608,-3960 -2131,-81 -3149,2449 -1881,3855 494,547 645,584 1525,820l33 2795c-408,-541 -788,-992 -1396,-1343 -1069,-618 -3453,-1397 -1511,1234 205,278 394,450 676,634 308,201 648,319 910,543l-3026 25 -158 523c-12,199 18,377 52,567 555,327 298,-261 726,1517 339,1412 1002,4586 1332,5594l5152 37c143,-262 892,-3296 878,-3534 271,483 360,1159 489,1754 70,323 148,587 237,893 96,328 39,396 203,826 583,150 5805,106 6666,39l2148 -9055 513 -106 11 -1303c-895,-229 -3539,13 -4671,-84 262,-33 1028,-376 1285,-516 1045,-568 2610,-2443 2307,-3322 -1511,-253 -3397,747 -4354,2117 -171,244 -138,320 -349,536l-31 -3910c1091,-385 1147,-194 1897,-915 1836,-1768 592,-5026 -2081,-5043 -2636,-16 -3926,3031 -2205,4981 478,542 1047,659 1924,972z"/>
   <path class="fil1" d="M10382 17686l131 454c10,166 -9,438 -13,613l-434 116c-378,1947 -685,1835 -352,3353 170,777 557,2616 806,3191l5938 3 1997 -8329 -9924 -5c81,651 1,550 750,536 344,-6 852,-70 1101,68z"/>
   <path class="fil1" d="M3574 25369l4484 48 1538 -6368 -7565 -9c210,1060 1219,5717 1543,6329z"/>
   <path class="fil2" d="M12904 4713c-3426,956 -1849,5786 1199,4957 1151,-313 2168,-1520 1842,-3058 -65,-309 -193,-570 -377,-833 -582,-833 -1692,-1338 -2664,-1066z"/>
   <path class="fil2" d="M5208 9624c-2592,1107 -900,4388 1274,3557 2386,-912 907,-4489 -1274,-3557z"/>
   <path class="fil1" d="M12911 5566c-2073,672 -1156,3949 1112,3282 1997,-586 1258,-4050 -1112,-3282z"/>
   <path class="fil1" d="M5413 10149c-1788,590 -762,3089 834,2531 1612,-564 830,-3081 -834,-2531z"/>
   <path class="fil2" d="M13846 15016c1895,-258 2185,-692 3045,-1427 456,-390 840,-1141 1075,-1700 -2026,6 -3682,1593 -4120,3127z"/>
   <path class="fil2" d="M13083 14999c1,-399 -353,-858 -533,-1142l-654 -755c-664,-695 -1864,-1130 -2868,-1226 328,1336 1414,2289 2622,2781 430,175 949,317 1433,342z"/>
   <path class="fil1" d="M9031 16278l10059 35 -18 -542 -6884 -15 -2059 0c-807,0 -659,-220 -1098,522z"/>
   <path class="fil2" d="M6182 17361c1475,-50 2434,-1045 3006,-2303 -465,86 -1084,242 -1494,477 -616,351 -1379,1104 -1512,1826z"/>
   <path class="fil2" d="M5444 17366c-136,-595 -739,-1279 -1060,-1520 -500,-374 -1147,-689 -1933,-770 240,904 1083,1675 1905,2010 337,137 679,250 1088,280z"/>
   <path class="fil3" d="M13404 6173l204 0 0 131c23,6 76,27 157,66 12,-10 22,-23 29,-37 13,-25 29,-37 48,-37l60 0 21 -1c13,1 20,12 23,33 0,2 3,14 8,35l55 293c0,5 2,13 4,24 14,61 21,99 21,113 0,19 -23,28 -68,28 -45,0 -72,-2 -80,-4 -8,-3 -21,-23 -39,-61 -74,-146 -154,-240 -239,-281l0 471c201,127 333,240 397,340 63,100 95,215 95,344 0,116 -23,210 -69,281 -47,71 -101,124 -164,159 -63,36 -149,57 -258,65l0 196 -204 0 0 -216c-65,-27 -109,-48 -130,-63 -19,-12 -34,-19 -44,-19 -18,0 -34,17 -48,52 -8,21 -18,33 -27,38 -9,5 -39,7 -89,7 -15,0 -26,-19 -32,-58l-73 -425c-4,-22 -6,-35 -6,-40 0,-28 27,-42 80,-42 43,0 70,6 81,16 12,10 34,45 66,104 81,144 154,232 222,263l0 -555c-324,-182 -486,-398 -486,-650 0,-87 13,-159 40,-216 26,-59 73,-112 142,-161 69,-49 170,-74 303,-78l0 -115zm-1 660l0 -414c-55,0 -98,16 -131,50 -32,34 -48,70 -48,109 0,88 59,172 179,255zm206 691l0 466c121,-18 182,-83 182,-194 0,-99 -61,-190 -182,-272z"/>
   <path class="fil3" d="M5781 10719l134 0 0 87c15,3 50,18 103,43 8,-7 15,-15 19,-25 9,-16 19,-24 32,-24l40 0 14 -1c8,1 12,9 15,22 0,1 1,9 4,24l37 192c0,4 1,9 3,16 9,41 13,65 13,75 0,12 -15,18 -45,18 -29,0 -47,-1 -52,-3 -5,-2 -14,-15 -26,-40 -48,-96 -101,-158 -157,-185l0 310c132,84 219,158 261,224 42,66 63,141 63,227 0,76 -15,137 -46,184 -31,47 -66,82 -108,105 -41,23 -98,37 -169,43l0 129 -135 0 0 -143c-43,-17 -71,-31 -85,-41 -13,-8 -23,-12 -30,-12 -11,0 -21,11 -31,34 -5,13 -11,22 -18,25 -6,3 -25,5 -58,5 -10,0 -17,-13 -21,-38l-48 -280c-3,-15 -4,-24 -4,-26 0,-19 17,-28 52,-28 28,0 46,3 54,10 7,7 22,30 43,69 53,95 102,152 146,173l0 -366c-213,-119 -320,-262 -320,-428 0,-57 9,-104 27,-142 17,-38 48,-73 93,-106 46,-32 112,-49 200,-51l0 -76zm-1 435l0 -273c-36,0 -65,11 -86,33 -21,23 -32,46 -32,72 0,58 39,113 118,168zm136 454l0 307c79,-12 119,-54 119,-127 0,-66 -40,-125 -119,-180z"/>
   <rect class="fil4" x="1638" y="18015" width="8250" height="486"/>
  </g>
 </g>
</svg>
