<?xml version="1.0" encoding="utf-8"?>
<!-- Generator: Adobe Illustrator 21.0.2, SVG Export Plug-In . SVG Version: 6.00 Build 0)  -->
<svg version="1.1" id="Layer_1" xmlns="http://www.w3.org/2000/svg" xmlns:xlink="http://www.w3.org/1999/xlink" x="0px" y="0px"
	 viewBox="0 0 595.3 841.9" style="enable-background:new 0 0 595.3 841.9;" xml:space="preserve">
<style type="text/css">
	.st0{fill:#36423B;}
	.st1{fill:#42BB85;}
	.st2{fill:#FFFFFF;}
	.flower {
            animation: flowermove 2s linear infinite;
			transform-origin: 50% 100%;
			-moz-transform-origin: 63% 35%;
	}	.flower2 {
            animation: flowermove 1s linear infinite;
			transform-origin: 50% 100%;
			-moz-transform-origin: 28% 48%;
	}
        @keyframes flowermove {
        0% {
            transform: rotate(-10deg);
            }
        50% {
            transform: rotate(10deg);
            }
	  100% {
            transform: rotate(-10deg);
            }
        }
</style>
<g id="Warstwa_x0020_1">
	<g id="_2705663740272">
		<path id="XMLID_3_" class="st0 flower2" d="M171,389.8l0-0.3c18.9-6.4,28.7-6.2,42.3-20.5c38.1-40,10.3-110.1-45.6-112.3
			c-60.4-2.3-89.3,69.4-53.3,109.3c14,15.5,18.3,16.6,43.2,23.2l0,0.3l0,1.3c4.7,0,9,0,13.4,0L171,389.8z"/>
		<path id="XMLID_2_" class="st0" d="M171.1,390.8c-4.4,0-8.7,0-13.4,0l0.9,76l13.2,0L171.1,390.8z"/>
		<path id="XMLID_5_" class="st0 flower" d="M387.9,289c30.9-10.9,32.5-5.5,53.8-25.9c52-50.1,16.8-142.5-59-143
			c-74.7-0.5-111.3,85.9-62.5,141.2c13.5,15.4,29.7,18.7,54.5,27.6c0.2,0.6,0.3,1.4,0.4,2.2c4.2,0.3,8.5,0.7,12.8,1L387.9,289z"/>
		<path id="XMLID_6_" class="st0" d="M388.7,397l-0.8-105.2c-4.3-0.2-8.6-0.7-12.8-1c2.6,17.1,2.1,85.2,0.4,107.4
			C379.7,398.2,384.4,396.9,388.7,397z"/>
		<path id="XMLID_12_" class="st0" d="M342.1,433.1c-0.1,0-0.3,0-0.4,0C341.8,433.1,342,433.1,342.1,433.1z"/>
		<path id="XMLID_7_" class="st0" d="M423.7,433.6c-1.2,0.8-2.2,1.5-3.7,2.3c-25,5-37-13-31-36c-6,23,6,41,31,36
			C421.5,435.1,422.4,434.4,423.7,433.6c-1.2-0.1-2.3-0.2-3.4-0.2c7.4-0.9,29.1-10.7,36.4-14.6c29.6-16.1,74-69.3,65.4-94.2
			c-42.8-7.2-96.3,21.2-123.4,60c-4.8,6.9-3.9,9.1-9.9,15.2l0-3.2c-4.3-0.2-9,1.1-13.2,1.2c-0.1,1.2-0.2,2.3-0.3,3.2
			c0.4-8.2-34.4-54.7-87-71.1c-7.1-2.2-32.3-7.6-40.2-5.7c-28.6,7,41.1,105.2,93.6,108.7c0.1,0,0.3,0,0.4,0c0.8,0,1.5,0.1,2.3,0.1
			l-0.8,0c10.8,0.6,22.3-0.3,28.4-7.3c4-6,3-16,3-25c0,9,1,19-3,25c-6.1,7-17.6,7.9-28.4,7.3l-71.6,1.1l1.2-17.1
			c-0.1-0.6-0.4-1.6-0.8-2.4c-34.6-5.9-77.8,19.6-100.5,53.9l0-2.6l-13.2,0l0,2.3c-11.6-15.3-22.3-28.1-39.6-38.1
			c-30.3-17.5-97.9-39.6-42.8,35c5.8,7.9,11.2,12.8,19.2,18c8.7,5.7,18.4,9,25.8,15.4l-85.8,0.7l-4.5,14.8
			c-0.3,5.6,0.5,10.7,1.5,16.1c15.7,9.3,8.4-7.4,20.6,43c9.6,40,28.4,130,37.8,158.6l146,1c4.1-7.4,25.3-93.4,24.9-100.2
			c7.7,13.7,10.2,32.9,13.9,49.7c2,9.2,4.2,16.6,6.7,25.3c2.7,9.3,1.1,11.2,5.8,23.4c16.5,4.3,164.6,3,189,1.1l60.9-256.7l14.5-3
			l0.3-36.9C528.1,429.5,457.4,435.7,423.7,433.6z M46.4,524.4v-13.8h233.9v13.8H46.4z M228.4,720.5l-127.1-1.4
			c-9.2-17.3-37.8-149.4-43.7-179.4L272,540L228.4,720.5z M466.5,720.5l-168.3-0.1c-7.1-16.3-18-68.4-22.8-90.5
			c-9.4-43-0.7-39.9,10-95l12.3-3.3c0.1-5,0.7-12.7,0.4-17.4l-3.7-12.9c-7.1-3.9-21.5-2.1-31.2-1.9c-21.2,0.4-19,3.3-21.3-15.2
			l281.3,0.1L466.5,720.5z M256,461.4c12.4-21,8.2-14.8,31.1-14.8h58.4l195.1,0.4l0.5,15.4L256,461.4z"/>
		<path id="XMLID_10_" class="st1 flower" d="M365.8,133.6c-97.1,27.1-52.4,164,34,140.5c32.6-8.9,61.5-43.1,52.2-86.7
			c-1.8-8.8-5.5-16.2-10.7-23.6C424.8,140.2,393.3,125.9,365.8,133.6z"/>
		<circle id="XMLID_9_" class="st1 flower2" cx="164.9" cy="322.9" r="54.5"/>
		<circle id="XMLID_8_" class="st2 flower" cx="383.1" cy="204.6" r="49.9"/>
		<circle id="XMLID_4_" class="st2 flower2" cx="164.4" cy="323.2" r="37.7"/>
		<path id="XMLID_11_" class="st1" d="M392.5,425.7c53.7-7.3,61.9-19.6,86.3-40.5c12.9-11.1,23.8-32.3,30.5-48.2
			C451.8,337.2,404.9,382.2,392.5,425.7z"/>
		<path id="XMLID_1_" class="st1" d="M355.7,392.8l-18.5-21.4c-18.8-19.7-52.8-32-81.3-34.8c9.3,37.9,40.1,64.9,74.3,78.8
			c12.2,5,26.9,9,40.6,9.7C370.9,413.9,360.9,400.8,355.7,392.8z"/>
		<path id="XMLID_13_" class="st1" d="M175.2,492.1c41.8-1.4,69-29.6,85.2-65.3c-13.2,2.4-30.7,6.9-42.3,13.5
			C200.6,450.3,179,471.7,175.2,492.1z"/>
		<path id="XMLID_14_" class="st1" d="M154.3,492.3c-3.9-16.9-20.9-36.3-30-43.1c-14.2-10.6-32.5-19.5-54.8-21.8
			c6.8,25.6,30.7,47.5,54,57C133,488.2,142.7,491.4,154.3,492.3z"/>
		<path id="XMLID_15_" class="st1 flower" d="M380,175h5.8v3.7c0.7,0.2,2.2,0.8,4.5,1.9c0.3-0.3,0.6-0.7,0.8-1c0.4-0.7,0.8-1,1.4-1h1.7
			l0.6,0c0.4,0,0.6,0.3,0.7,0.9c0,0.1,0.1,0.4,0.2,1l1.6,8.3c0,0.1,0.1,0.4,0.1,0.7c0.4,1.7,0.6,2.8,0.6,3.2c0,0.5-0.7,0.8-1.9,0.8
			c-1.3,0-2-0.1-2.3-0.1c-0.2-0.1-0.6-0.7-1.1-1.7c-2.1-4.1-4.4-6.8-6.8-8v13.4c5.7,3.6,9.4,6.8,11.3,9.6c1.8,2.8,2.7,6.1,2.7,9.8
			c0,3.3-0.7,6-2,8c-1.3,2-2.9,3.5-4.6,4.5c-1.8,1-4.2,1.6-7.3,1.8v5.6H380V230c-1.8-0.8-3.1-1.4-3.7-1.8c-0.5-0.3-1-0.5-1.2-0.5
			c-0.5,0-1,0.5-1.4,1.5c-0.2,0.6-0.5,0.9-0.8,1.1c-0.3,0.1-1.1,0.2-2.5,0.2c-0.4,0-0.7-0.5-0.9-1.6l-2.1-12c-0.1-0.6-0.2-1-0.2-1.1
			c0-0.8,0.8-1.2,2.3-1.2c1.2,0,2,0.2,2.3,0.5c0.3,0.3,1,1.3,1.9,2.9c2.3,4.1,4.4,6.6,6.3,7.5v-15.7c-9.2-5.2-13.8-11.3-13.8-18.4
			c0-2.5,0.4-4.5,1.1-6.1c0.7-1.7,2.1-3.2,4-4.6c2-1.4,4.8-2.1,8.6-2.2V175z M379.9,193.7V182c-1.6,0-2.8,0.5-3.7,1.4
			c-0.9,1-1.4,2-1.4,3.1C374.9,189,376.5,191.3,379.9,193.7z M385.8,213.3v13.2c3.4-0.5,5.2-2.4,5.2-5.5
			C390.9,218.2,389.2,215.6,385.8,213.3z"/>
		<path id="XMLID_19_" class="st1 flower2" d="M163.9,303.8h3.8v2.5c0.4,0.1,1.4,0.5,2.9,1.2c0.2-0.2,0.4-0.4,0.5-0.7
			c0.3-0.5,0.5-0.7,0.9-0.7h1.1l0.4,0c0.2,0,0.3,0.3,0.4,0.6c0,0,0,0.3,0.1,0.7l1,5.4c0,0.1,0,0.3,0.1,0.5c0.3,1.2,0.4,1.8,0.4,2.1
			c0,0.3-0.4,0.5-1.3,0.5c-0.8,0-1.3,0-1.5-0.1c-0.1-0.1-0.4-0.4-0.7-1.1c-1.4-2.7-2.9-4.5-4.5-5.2v8.8c3.7,2.4,6.2,4.5,7.4,6.3
			s1.8,4,1.8,6.4c0,2.2-0.4,3.9-1.3,5.2s-1.9,2.3-3.1,3c-1.2,0.7-2.8,1-4.8,1.2v3.7h-3.8v-4.1c-1.2-0.5-2-0.9-2.4-1.2
			c-0.4-0.2-0.7-0.3-0.9-0.3c-0.3,0-0.6,0.3-0.9,1c-0.1,0.4-0.3,0.6-0.5,0.7c-0.2,0.1-0.7,0.1-1.6,0.1c-0.3,0-0.5-0.4-0.6-1.1
			l-1.4-7.9c-0.1-0.4-0.1-0.7-0.1-0.7c0-0.5,0.5-0.8,1.5-0.8c0.8,0,1.3,0.1,1.5,0.3c0.2,0.2,0.6,0.9,1.2,2c1.5,2.7,2.9,4.3,4.1,4.9
			v-10.4c-6-3.4-9.1-7.4-9.1-12.1c0-1.6,0.3-2.9,0.8-4c0.5-1.1,1.4-2.1,2.6-3c1.3-0.9,3.2-1.4,5.7-1.4V303.8z M163.8,316.2v-7.7
			c-1,0-1.8,0.3-2.4,0.9c-0.6,0.7-0.9,1.3-0.9,2C160.5,313.1,161.6,314.6,163.8,316.2z M167.7,329v8.7c2.2-0.3,3.4-1.5,3.4-3.6
			C171.1,332.3,169.9,330.6,167.7,329z"/>
	</g>
</g>
</svg>
